<svg width="852" height="174" viewBox="0 0 852 174" fill="none" xmlns="http://www.w3.org/2000/svg">
<path d="M64.4844 38.0781C64.4844 49.3594 61.2656 58 54.8281 64C48.4219 70 39.1562 73 27.0312 73H7.625V4.46875H29.1406C40.3281 4.46875 49.0156 7.42188 55.2031 13.3281C61.3906 19.2344 64.4844 27.4844 64.4844 38.0781ZM49.3906 38.4531C49.3906 23.7344 42.8906 16.375 29.8906 16.375H22.1562V61H28.3906C42.3906 61 49.3906 53.4844 49.3906 38.4531ZM76.9531 7.04688C76.9531 2.39063 79.5469 0.0625 84.7344 0.0625C89.9219 0.0625 92.5156 2.39063 92.5156 7.04688C92.5156 9.26562 91.8594 11 90.5469 12.25C89.2656 13.4688 87.3281 14.0781 84.7344 14.0781C79.5469 14.0781 76.9531 11.7344 76.9531 7.04688ZM91.8594 73H77.5625V20.5938H91.8594V73ZM143.469 57.4375C143.469 62.8125 141.594 66.9062 137.844 69.7188C134.125 72.5312 128.547 73.9375 121.109 73.9375C117.297 73.9375 114.047 73.6719 111.359 73.1406C108.672 72.6406 106.156 71.8906 103.812 70.8906V59.0781C106.469 60.3281 109.453 61.375 112.766 62.2188C116.109 63.0625 119.047 63.4844 121.578 63.4844C126.766 63.4844 129.359 61.9844 129.359 58.9844C129.359 57.8594 129.016 56.9531 128.328 56.2656C127.641 55.5469 126.453 54.75 124.766 53.875C123.078 52.9688 120.828 51.9219 118.016 50.7344C113.984 49.0469 111.016 47.4844 109.109 46.0469C107.234 44.6094 105.859 42.9688 104.984 41.125C104.141 39.25 103.719 36.9531 103.719 34.2344C103.719 29.5781 105.516 25.9844 109.109 23.4531C112.734 20.8906 117.859 19.6094 124.484 19.6094C130.797 19.6094 136.938 20.9844 142.906 23.7344L138.594 34.0469C135.969 32.9219 133.516 32 131.234 31.2812C128.953 30.5625 126.625 30.2031 124.25 30.2031C120.031 30.2031 117.922 31.3438 117.922 33.625C117.922 34.9062 118.594 36.0156 119.938 36.9531C121.312 37.8906 124.297 39.2812 128.891 41.125C132.984 42.7812 135.984 44.3281 137.891 45.7656C139.797 47.2031 141.203 48.8594 142.109 50.7344C143.016 52.6094 143.469 54.8438 143.469 57.4375ZM175.906 73.9375C159.594 73.9375 151.438 64.9844 151.438 47.0781C151.438 38.1719 153.656 31.375 158.094 26.6875C162.531 21.9688 168.891 19.6094 177.172 19.6094C183.234 19.6094 188.672 20.7969 193.484 23.1719L189.266 34.2344C187.016 33.3281 184.922 32.5938 182.984 32.0312C181.047 31.4375 179.109 31.1406 177.172 31.1406C169.734 31.1406 166.016 36.4219 166.016 46.9844C166.016 57.2344 169.734 62.3594 177.172 62.3594C179.922 62.3594 182.469 62 184.812 61.2812C187.156 60.5312 189.5 59.375 191.844 57.8125V70.0469C189.531 71.5156 187.188 72.5312 184.812 73.0938C182.469 73.6562 179.5 73.9375 175.906 73.9375ZM215.422 46.7031C215.422 51.8906 216.266 55.8125 217.953 58.4688C219.672 61.125 222.453 62.4531 226.297 62.4531C230.109 62.4531 232.844 61.1406 234.5 58.5156C236.188 55.8594 237.031 51.9219 237.031 46.7031C237.031 41.5156 236.188 37.625 234.5 35.0312C232.812 32.4375 230.047 31.1406 226.203 31.1406C222.391 31.1406 219.641 32.4375 217.953 35.0312C216.266 37.5938 215.422 41.4844 215.422 46.7031ZM251.656 46.7031C251.656 55.2344 249.406 61.9062 244.906 66.7188C240.406 71.5312 234.141 73.9375 226.109 73.9375C221.078 73.9375 216.641 72.8438 212.797 70.6562C208.953 68.4375 206 65.2656 203.938 61.1406C201.875 57.0156 200.844 52.2031 200.844 46.7031C200.844 38.1406 203.078 31.4844 207.547 26.7344C212.016 21.9844 218.297 19.6094 226.391 19.6094C231.422 19.6094 235.859 20.7031 239.703 22.8906C243.547 25.0781 246.5 28.2188 248.562 32.3125C250.625 36.4062 251.656 41.2031 251.656 46.7031ZM275.938 73L255.969 20.5938H270.922L281.047 50.4531C282.172 54.2344 282.875 57.8125 283.156 61.1875H283.438C283.594 58.1875 284.297 54.6094 285.547 50.4531L295.625 20.5938H310.578L290.609 73H275.938ZM339.828 29.7812C336.797 29.7812 334.422 30.75 332.703 32.6875C330.984 34.5938 330 37.3125 329.75 40.8438H349.812C349.75 37.3125 348.828 34.5938 347.047 32.6875C345.266 30.75 342.859 29.7812 339.828 29.7812ZM341.844 73.9375C333.406 73.9375 326.812 71.6094 322.062 66.9531C317.312 62.2969 314.938 55.7031 314.938 47.1719C314.938 38.3906 317.125 31.6094 321.5 26.8281C325.906 22.0156 331.984 19.6094 339.734 19.6094C347.141 19.6094 352.906 21.7188 357.031 25.9375C361.156 30.1562 363.219 35.9844 363.219 43.4219V50.3594H329.422C329.578 54.4219 330.781 57.5938 333.031 59.875C335.281 62.1562 338.438 63.2969 342.5 63.2969C345.656 63.2969 348.641 62.9688 351.453 62.3125C354.266 61.6562 357.203 60.6094 360.266 59.1719V70.2344C357.766 71.4844 355.094 72.4062 352.25 73C349.406 73.625 345.938 73.9375 341.844 73.9375ZM404.094 19.6094C406.031 19.6094 407.641 19.75 408.922 20.0312L407.844 33.4375C406.688 33.125 405.281 32.9688 403.625 32.9688C399.062 32.9688 395.5 34.1406 392.938 36.4844C390.406 38.8281 389.141 42.1094 389.141 46.3281V73H374.844V20.5938H385.672L387.781 29.4062H388.484C390.109 26.4688 392.297 24.1094 395.047 22.3281C397.828 20.5156 400.844 19.6094 404.094 19.6094ZM62.4648 173H55.2461L42.5703 130.934C41.9688 129.072 41.2956 126.723 40.5508 123.887C39.806 121.051 39.4193 119.346 39.3906 118.773C38.7604 122.555 37.7578 126.694 36.3828 131.191L24.0938 173H16.875L0.160156 110.18H7.89453L17.8203 148.98C19.1953 154.423 20.1979 159.35 20.8281 163.762C21.6016 158.52 22.7474 153.392 24.2656 148.379L35.5234 110.18H43.2578L55.0742 148.723C56.4492 153.163 57.6094 158.176 58.5547 163.762C59.099 159.694 60.1302 154.738 61.6484 148.895L71.5312 110.18H79.2656L62.4648 173ZM128.68 149.41C128.68 157.087 126.746 163.089 122.879 167.414C119.012 171.711 113.669 173.859 106.852 173.859C102.641 173.859 98.9023 172.871 95.6367 170.895C92.3711 168.918 89.8503 166.082 88.0742 162.387C86.2982 158.691 85.4102 154.366 85.4102 149.41C85.4102 141.733 87.3294 135.76 91.168 131.492C95.0065 127.195 100.335 125.047 107.152 125.047C113.741 125.047 118.969 127.238 122.836 131.621C126.732 136.004 128.68 141.934 128.68 149.41ZM92.8008 149.41C92.8008 155.426 94.0039 160.009 96.4102 163.16C98.8164 166.311 102.354 167.887 107.023 167.887C111.693 167.887 115.23 166.326 117.637 163.203C120.072 160.052 121.289 155.454 121.289 149.41C121.289 143.423 120.072 138.883 117.637 135.789C115.23 132.667 111.664 131.105 106.938 131.105C102.268 131.105 98.7448 132.638 96.3672 135.703C93.9896 138.768 92.8008 143.337 92.8008 149.41ZM173.453 173V142.535C173.453 138.697 172.579 135.832 170.832 133.941C169.085 132.051 166.349 131.105 162.625 131.105C157.698 131.105 154.089 132.438 151.797 135.102C149.505 137.766 148.359 142.163 148.359 148.293V173H141.227V125.906H147.027L148.188 132.352H148.531C149.992 130.031 152.04 128.241 154.676 126.98C157.311 125.691 160.247 125.047 163.484 125.047C169.156 125.047 173.424 126.422 176.289 129.172C179.154 131.893 180.586 136.262 180.586 142.277V173H173.453ZM227.336 166.684H226.949C223.655 171.467 218.728 173.859 212.168 173.859C206.009 173.859 201.211 171.754 197.773 167.543C194.365 163.332 192.66 157.345 192.66 149.582C192.66 141.819 194.379 135.789 197.816 131.492C201.254 127.195 206.038 125.047 212.168 125.047C218.556 125.047 223.454 127.367 226.863 132.008H227.422L227.121 128.613L226.949 125.305V106.141H234.082V173H228.281L227.336 166.684ZM213.07 167.887C217.94 167.887 221.464 166.569 223.641 163.934C225.846 161.27 226.949 156.987 226.949 151.086V149.582C226.949 142.908 225.832 138.152 223.598 135.316C221.392 132.452 217.854 131.02 212.984 131.02C208.802 131.02 205.594 132.652 203.359 135.918C201.154 139.155 200.051 143.738 200.051 149.668C200.051 155.684 201.154 160.224 203.359 163.289C205.565 166.354 208.802 167.887 213.07 167.887ZM269.145 173.859C262.184 173.859 256.684 171.74 252.645 167.5C248.634 163.26 246.629 157.374 246.629 149.84C246.629 142.249 248.491 136.219 252.215 131.75C255.967 127.281 260.995 125.047 267.297 125.047C273.198 125.047 277.867 126.995 281.305 130.891C284.742 134.758 286.461 139.871 286.461 146.23V150.742H254.02C254.163 156.271 255.552 160.467 258.188 163.332C260.852 166.197 264.59 167.629 269.402 167.629C274.473 167.629 279.486 166.569 284.441 164.449V170.809C281.921 171.897 279.529 172.671 277.266 173.129C275.031 173.616 272.324 173.859 269.145 173.859ZM267.211 131.02C263.43 131.02 260.408 132.251 258.145 134.715C255.91 137.178 254.592 140.587 254.191 144.941H278.812C278.812 140.444 277.81 137.007 275.805 134.629C273.799 132.223 270.935 131.02 267.211 131.02ZM320.148 125.047C322.24 125.047 324.116 125.219 325.777 125.562L324.789 132.18C322.841 131.75 321.122 131.535 319.633 131.535C315.823 131.535 312.557 133.082 309.836 136.176C307.143 139.27 305.797 143.122 305.797 147.734V173H298.664V125.906H304.551L305.367 134.629H305.711C307.458 131.564 309.564 129.201 312.027 127.539C314.491 125.878 317.198 125.047 320.148 125.047ZM355.812 131.449H343.824V173H336.691V131.449H328.27V128.227L336.691 125.648V123.027C336.691 111.454 341.747 105.668 351.859 105.668C354.352 105.668 357.273 106.169 360.625 107.172L358.777 112.887C356.027 111.999 353.678 111.555 351.73 111.555C349.038 111.555 347.047 112.457 345.758 114.262C344.469 116.038 343.824 118.902 343.824 122.855V125.906H355.812V131.449ZM371.109 125.906V156.457C371.109 160.296 371.983 163.16 373.73 165.051C375.478 166.941 378.214 167.887 381.938 167.887C386.865 167.887 390.46 166.54 392.723 163.848C395.014 161.155 396.16 156.758 396.16 150.656V125.906H403.293V173H397.406L396.375 166.684H395.988C394.527 169.004 392.493 170.78 389.887 172.012C387.309 173.243 384.358 173.859 381.035 173.859C375.306 173.859 371.009 172.499 368.145 169.777C365.309 167.056 363.891 162.702 363.891 156.715V125.906H371.109ZM425.594 173H418.461V106.141H425.594V173ZM464.652 173V110.18H471.957V173H464.652ZM520.383 173V142.535C520.383 138.697 519.509 135.832 517.762 133.941C516.014 132.051 513.279 131.105 509.555 131.105C504.628 131.105 501.018 132.438 498.727 135.102C496.435 137.766 495.289 142.163 495.289 148.293V173H488.156V125.906H493.957L495.117 132.352H495.461C496.922 130.031 498.97 128.241 501.605 126.98C504.241 125.691 507.177 125.047 510.414 125.047C516.086 125.047 520.354 126.422 523.219 129.172C526.083 131.893 527.516 136.262 527.516 142.277V173H520.383ZM574.266 166.684H573.879C570.585 171.467 565.658 173.859 559.098 173.859C552.939 173.859 548.141 171.754 544.703 167.543C541.294 163.332 539.59 157.345 539.59 149.582C539.59 141.819 541.309 135.789 544.746 131.492C548.184 127.195 552.967 125.047 559.098 125.047C565.486 125.047 570.384 127.367 573.793 132.008H574.352L574.051 128.613L573.879 125.305V106.141H581.012V173H575.211L574.266 166.684ZM560 167.887C564.87 167.887 568.393 166.569 570.57 163.934C572.776 161.27 573.879 156.987 573.879 151.086V149.582C573.879 142.908 572.762 138.152 570.527 135.316C568.322 132.452 564.784 131.02 559.914 131.02C555.732 131.02 552.523 132.652 550.289 135.918C548.083 139.155 546.98 143.738 546.98 149.668C546.98 155.684 548.083 160.224 550.289 163.289C552.495 166.354 555.732 167.887 560 167.887ZM636.828 149.41C636.828 157.087 634.895 163.089 631.027 167.414C627.16 171.711 621.818 173.859 615 173.859C610.789 173.859 607.051 172.871 603.785 170.895C600.52 168.918 597.999 166.082 596.223 162.387C594.447 158.691 593.559 154.366 593.559 149.41C593.559 141.733 595.478 135.76 599.316 131.492C603.155 127.195 608.483 125.047 615.301 125.047C621.889 125.047 627.117 127.238 630.984 131.621C634.88 136.004 636.828 141.934 636.828 149.41ZM600.949 149.41C600.949 155.426 602.152 160.009 604.559 163.16C606.965 166.311 610.503 167.887 615.172 167.887C619.841 167.887 623.379 166.326 625.785 163.203C628.22 160.052 629.438 155.454 629.438 149.41C629.438 143.423 628.22 138.883 625.785 135.789C623.379 132.667 619.812 131.105 615.086 131.105C610.417 131.105 606.893 132.638 604.516 135.703C602.138 138.768 600.949 143.337 600.949 149.41ZM681.602 173V142.535C681.602 138.697 680.728 135.832 678.98 133.941C677.233 132.051 674.497 131.105 670.773 131.105C665.846 131.105 662.237 132.438 659.945 135.102C657.654 137.766 656.508 142.163 656.508 148.293V173H649.375V125.906H655.176L656.336 132.352H656.68C658.141 130.031 660.189 128.241 662.824 126.98C665.46 125.691 668.396 125.047 671.633 125.047C677.305 125.047 681.573 126.422 684.438 129.172C687.302 131.893 688.734 136.262 688.734 142.277V173H681.602ZM723.324 173.859C716.363 173.859 710.863 171.74 706.824 167.5C702.814 163.26 700.809 157.374 700.809 149.84C700.809 142.249 702.671 136.219 706.395 131.75C710.147 127.281 715.174 125.047 721.477 125.047C727.378 125.047 732.047 126.995 735.484 130.891C738.922 134.758 740.641 139.871 740.641 146.23V150.742H708.199C708.342 156.271 709.732 160.467 712.367 163.332C715.031 166.197 718.77 167.629 723.582 167.629C728.652 167.629 733.665 166.569 738.621 164.449V170.809C736.1 171.897 733.708 172.671 731.445 173.129C729.211 173.616 726.504 173.859 723.324 173.859ZM721.391 131.02C717.609 131.02 714.587 132.251 712.324 134.715C710.09 137.178 708.772 140.587 708.371 144.941H732.992C732.992 140.444 731.99 137.007 729.984 134.629C727.979 132.223 725.115 131.02 721.391 131.02ZM783.223 160.152C783.223 164.535 781.59 167.915 778.324 170.293C775.059 172.671 770.475 173.859 764.574 173.859C758.329 173.859 753.46 172.871 749.965 170.895V164.277C752.228 165.423 754.648 166.326 757.227 166.984C759.833 167.643 762.34 167.973 764.746 167.973C768.47 167.973 771.335 167.385 773.34 166.211C775.345 165.008 776.348 163.189 776.348 160.754C776.348 158.921 775.546 157.359 773.941 156.07C772.366 154.753 769.272 153.206 764.66 151.43C760.277 149.797 757.155 148.379 755.293 147.176C753.46 145.944 752.085 144.555 751.168 143.008C750.28 141.461 749.836 139.613 749.836 137.465C749.836 133.626 751.397 130.604 754.52 128.398C757.642 126.164 761.924 125.047 767.367 125.047C772.438 125.047 777.393 126.078 782.234 128.141L779.699 133.941C774.973 131.993 770.69 131.02 766.852 131.02C763.471 131.02 760.922 131.549 759.203 132.609C757.484 133.669 756.625 135.13 756.625 136.992C756.625 138.253 756.94 139.327 757.57 140.215C758.229 141.103 759.275 141.948 760.707 142.75C762.139 143.552 764.889 144.712 768.957 146.23C774.543 148.264 778.31 150.312 780.258 152.375C782.234 154.438 783.223 157.03 783.223 160.152ZM802 173H794.867V125.906H802V173ZM794.266 113.145C794.266 111.512 794.667 110.323 795.469 109.578C796.271 108.805 797.273 108.418 798.477 108.418C799.622 108.418 800.611 108.805 801.441 109.578C802.272 110.352 802.688 111.54 802.688 113.145C802.688 114.749 802.272 115.952 801.441 116.754C800.611 117.527 799.622 117.914 798.477 117.914C797.273 117.914 796.271 117.527 795.469 116.754C794.667 115.952 794.266 114.749 794.266 113.145ZM846.086 173L844.668 166.297H844.324C841.975 169.247 839.626 171.253 837.277 172.312C834.957 173.344 832.049 173.859 828.555 173.859C823.885 173.859 820.219 172.656 817.555 170.25C814.919 167.844 813.602 164.421 813.602 159.98C813.602 150.47 821.207 145.486 836.418 145.027L844.41 144.77V141.848C844.41 138.152 843.608 135.431 842.004 133.684C840.428 131.908 837.893 131.02 834.398 131.02C830.474 131.02 826.034 132.223 821.078 134.629L818.887 129.172C821.207 127.911 823.742 126.923 826.492 126.207C829.271 125.491 832.049 125.133 834.828 125.133C840.443 125.133 844.596 126.379 847.289 128.871C850.01 131.363 851.371 135.359 851.371 140.859V173H846.086ZM829.973 167.973C834.413 167.973 837.893 166.755 840.414 164.32C842.964 161.885 844.238 158.477 844.238 154.094V149.84L837.105 150.141C831.434 150.341 827.337 151.229 824.816 152.805C822.324 154.352 821.078 156.772 821.078 160.066C821.078 162.645 821.852 164.607 823.398 165.953C824.974 167.299 827.165 167.973 829.973 167.973Z" fill="white"/>
</svg>
