<svg width="520" height="25" viewBox="0 0 520 25" fill="none" xmlns="http://www.w3.org/2000/svg">
<path d="M113.018 19H105.617V6.15039H113.018V8.38281H108.342V11.2041H112.692V13.4365H108.342V16.75H113.018V19ZM132.096 19H128.984L125.996 14.1396L123.008 19H120.09L124.353 12.373L120.362 6.15039H123.368L126.137 10.7734L128.853 6.15039H131.788L127.754 12.5225L132.096 19ZM142.438 12.1973H143.334C144.172 12.1973 144.799 12.0332 145.215 11.7051C145.631 11.3711 145.839 10.8877 145.839 10.2549C145.839 9.61621 145.663 9.14453 145.312 8.83984C144.966 8.53516 144.421 8.38281 143.677 8.38281H142.438V12.1973ZM148.59 10.1582C148.59 11.541 148.156 12.5986 147.289 13.3311C146.428 14.0635 145.2 14.4297 143.606 14.4297H142.438V19H139.713V6.15039H143.817C145.376 6.15039 146.56 6.4873 147.368 7.16113C148.183 7.8291 148.59 8.82812 148.59 10.1582ZM157.016 19V6.15039H159.74V16.75H164.952V19H157.016ZM184.856 12.5576C184.856 14.6846 184.329 16.3193 183.274 17.4619C182.22 18.6045 180.708 19.1758 178.739 19.1758C176.771 19.1758 175.259 18.6045 174.204 17.4619C173.149 16.3193 172.622 14.6787 172.622 12.54C172.622 10.4014 173.149 8.76953 174.204 7.64453C175.265 6.51367 176.782 5.94824 178.757 5.94824C180.731 5.94824 182.24 6.5166 183.283 7.65332C184.332 8.79004 184.856 10.4248 184.856 12.5576ZM175.479 12.5576C175.479 13.9932 175.751 15.0742 176.296 15.8008C176.841 16.5273 177.655 16.8906 178.739 16.8906C180.913 16.8906 182 15.4463 182 12.5576C182 9.66309 180.919 8.21582 178.757 8.21582C177.673 8.21582 176.855 8.58203 176.305 9.31445C175.754 10.041 175.479 11.1221 175.479 12.5576ZM196.244 11.8545H197.123C197.984 11.8545 198.62 11.7109 199.03 11.4238C199.44 11.1367 199.646 10.6855 199.646 10.0703C199.646 9.46094 199.435 9.02734 199.013 8.76953C198.597 8.51172 197.949 8.38281 197.07 8.38281H196.244V11.8545ZM196.244 14.0693V19H193.52V6.15039H197.264C199.01 6.15039 200.302 6.46973 201.14 7.1084C201.978 7.74121 202.396 8.70508 202.396 10C202.396 10.7559 202.188 11.4297 201.772 12.0215C201.356 12.6074 200.768 13.0674 200.006 13.4014C201.939 16.29 203.199 18.1562 203.785 19H200.762L197.694 14.0693H196.244ZM218.803 19H211.402V6.15039H218.803V8.38281H214.127V11.2041H218.478V13.4365H214.127V16.75H218.803V19ZM243.125 19H240.4V8.41797H236.911V6.15039H246.614V8.41797H243.125V19ZM265.121 19H262.405V13.4541H257.316V19H254.592V6.15039H257.316V11.1865H262.405V6.15039H265.121V19ZM281.773 19H274.373V6.15039H281.773V8.38281H277.098V11.2041H281.448V13.4365H277.098V16.75H281.773V19ZM312.538 19H309.075L303.485 9.2793H303.406C303.518 10.9961 303.573 12.2207 303.573 12.9531V19H301.139V6.15039H304.575L310.156 15.7744H310.218C310.13 14.1045 310.086 12.9238 310.086 12.2324V6.15039H312.538V19ZM329.647 19L328.716 15.9414H324.031L323.1 19H320.164L324.699 6.09766H328.03L332.583 19H329.647ZM328.065 13.6562C327.204 10.8848 326.718 9.31738 326.606 8.9541C326.501 8.59082 326.425 8.30371 326.378 8.09277C326.185 8.84277 325.631 10.6973 324.717 13.6562H328.065ZM345.166 19H342.441V8.41797H338.952V6.15039H348.655V8.41797H345.166V19ZM367.092 6.15039V14.4648C367.092 15.4141 366.878 16.2461 366.45 16.9609C366.028 17.6758 365.416 18.2236 364.613 18.6045C363.811 18.9854 362.861 19.1758 361.766 19.1758C360.113 19.1758 358.83 18.7539 357.916 17.9102C357.002 17.0605 356.545 15.9004 356.545 14.4297V6.15039H359.261V14.0166C359.261 15.0068 359.46 15.7334 359.858 16.1963C360.257 16.6592 360.916 16.8906 361.836 16.8906C362.727 16.8906 363.371 16.6592 363.77 16.1963C364.174 15.7275 364.376 14.9951 364.376 13.999V6.15039H367.092ZM378.963 11.8545H379.842C380.703 11.8545 381.339 11.7109 381.749 11.4238C382.159 11.1367 382.364 10.6855 382.364 10.0703C382.364 9.46094 382.153 9.02734 381.731 8.76953C381.315 8.51172 380.668 8.38281 379.789 8.38281H378.963V11.8545ZM378.963 14.0693V19H376.238V6.15039H379.982C381.729 6.15039 383.021 6.46973 383.858 7.1084C384.696 7.74121 385.115 8.70508 385.115 10C385.115 10.7559 384.907 11.4297 384.491 12.0215C384.075 12.6074 383.486 13.0674 382.725 13.4014C384.658 16.29 385.918 18.1562 386.504 19H383.48L380.413 14.0693H378.963ZM401.521 19H394.121V6.15039H401.521V8.38281H396.846V11.2041H401.196V13.4365H396.846V16.75H401.521V19ZM420.887 6.15039H424.886C426.708 6.15039 428.029 6.41113 428.85 6.93262C429.676 7.44824 430.089 8.27148 430.089 9.40234C430.089 10.1699 429.907 10.7998 429.544 11.292C429.187 11.7842 428.709 12.0801 428.111 12.1797V12.2676C428.926 12.4492 429.512 12.7891 429.869 13.2871C430.232 13.7852 430.414 14.4473 430.414 15.2734C430.414 16.4453 429.989 17.3594 429.14 18.0156C428.296 18.6719 427.147 19 425.694 19H420.887V6.15039ZM423.611 11.2393H425.193C425.932 11.2393 426.465 11.125 426.793 10.8965C427.127 10.668 427.294 10.29 427.294 9.7627C427.294 9.27051 427.112 8.91895 426.749 8.70801C426.392 8.49121 425.823 8.38281 425.044 8.38281H423.611V11.2393ZM423.611 13.4014V16.75H425.387C426.137 16.75 426.69 16.6064 427.048 16.3193C427.405 16.0322 427.584 15.5928 427.584 15.001C427.584 13.9346 426.822 13.4014 425.299 13.4014H423.611ZM446.381 19H438.98V6.15039H446.381V8.38281H441.705V11.2041H446.056V13.4365H441.705V16.75H446.381V19ZM462.937 19L462.005 15.9414H457.32L456.389 19H453.453L457.988 6.09766H461.319L465.872 19H462.937ZM461.354 13.6562C460.493 10.8848 460.007 9.31738 459.896 8.9541C459.79 8.59082 459.714 8.30371 459.667 8.09277C459.474 8.84277 458.92 10.6973 458.006 13.6562H461.354ZM483.957 6.15039V14.4648C483.957 15.4141 483.743 16.2461 483.315 16.9609C482.894 17.6758 482.281 18.2236 481.479 18.6045C480.676 18.9854 479.727 19.1758 478.631 19.1758C476.979 19.1758 475.695 18.7539 474.781 17.9102C473.867 17.0605 473.41 15.9004 473.41 14.4297V6.15039H476.126V14.0166C476.126 15.0068 476.325 15.7334 476.724 16.1963C477.122 16.6592 477.781 16.8906 478.701 16.8906C479.592 16.8906 480.236 16.6592 480.635 16.1963C481.039 15.7275 481.241 14.9951 481.241 13.999V6.15039H483.957ZM498.061 19H495.336V8.41797H491.847V6.15039H501.55V8.41797H498.061V19ZM513.526 11.4414L516.207 6.15039H519.143L514.88 13.999V19H512.173V14.0869L507.91 6.15039H510.863L513.526 11.4414Z" fill="#FFC178"/>
<rect y="10" width="72" height="2" fill="#FFC178"/>
</svg>
