<svg width="1380" height="30" viewBox="0 0 1380 30" fill="none" xmlns="http://www.w3.org/2000/svg">
<g clip-path="url(#clip0)">
<path d="M4.49969 21V11.535H1.36469V10.5H8.89469V11.535H5.75969V21H4.49969ZM12.151 21.18C11.441 21.18 10.811 21.02 10.261 20.7C9.71104 20.37 9.27604 19.915 8.95604 19.335C8.64604 18.755 8.49104 18.07 8.49104 17.28C8.49104 16.5 8.64604 15.82 8.95604 15.24C9.26604 14.65 9.69604 14.195 10.246 13.875C10.806 13.545 11.451 13.38 12.181 13.38C12.901 13.38 13.521 13.545 14.041 13.875C14.571 14.195 14.976 14.62 15.256 15.15C15.536 15.68 15.676 16.25 15.676 16.86C15.676 16.97 15.671 17.08 15.661 17.19C15.661 17.3 15.661 17.425 15.661 17.565H9.73604C9.76604 18.135 9.89604 18.61 10.126 18.99C10.366 19.36 10.661 19.64 11.011 19.83C11.371 20.02 11.751 20.115 12.151 20.115C12.671 20.115 13.106 19.995 13.456 19.755C13.806 19.515 14.061 19.19 14.221 18.78H15.466C15.266 19.47 14.881 20.045 14.311 20.505C13.751 20.955 13.031 21.18 12.151 21.18ZM12.151 14.445C11.551 14.445 11.016 14.63 10.546 15C10.086 15.36 9.82104 15.89 9.75104 16.59H14.431C14.401 15.92 14.171 15.395 13.741 15.015C13.311 14.635 12.781 14.445 12.151 14.445ZM17.1415 21V13.56H18.2815L18.3865 14.985C18.6165 14.495 18.9665 14.105 19.4365 13.815C19.9065 13.525 20.4865 13.38 21.1765 13.38V14.7H20.8315C20.3915 14.7 19.9865 14.78 19.6165 14.94C19.2465 15.09 18.9515 15.35 18.7315 15.72C18.5115 16.09 18.4015 16.6 18.4015 17.25V21H17.1415ZM22.3862 21V13.56H23.5262L23.6162 14.64C23.8562 14.24 24.1762 13.93 24.5762 13.71C24.9762 13.49 25.4262 13.38 25.9262 13.38C26.5162 13.38 27.0212 13.5 27.4412 13.74C27.8712 13.98 28.2012 14.345 28.4312 14.835C28.6912 14.385 29.0462 14.03 29.4962 13.77C29.9562 13.51 30.4512 13.38 30.9812 13.38C31.8712 13.38 32.5812 13.65 33.1112 14.19C33.6412 14.72 33.9062 15.54 33.9062 16.65V21H32.6612V16.785C32.6612 16.015 32.5062 15.435 32.1962 15.045C31.8862 14.655 31.4412 14.46 30.8612 14.46C30.2612 14.46 29.7612 14.695 29.3612 15.165C28.9712 15.625 28.7762 16.285 28.7762 17.145V21H27.5162V16.785C27.5162 16.015 27.3612 15.435 27.0512 15.045C26.7412 14.655 26.2962 14.46 25.7162 14.46C25.1262 14.46 24.6312 14.695 24.2312 15.165C23.8412 15.625 23.6462 16.285 23.6462 17.145V21H22.3862ZM38.4496 21.18C37.5596 21.18 36.8196 20.955 36.2296 20.505C35.6396 20.055 35.2946 19.445 35.1946 18.675H36.4846C36.5646 19.065 36.7696 19.405 37.0996 19.695C37.4396 19.975 37.8946 20.115 38.4646 20.115C38.9946 20.115 39.3846 20.005 39.6346 19.785C39.8846 19.555 40.0096 19.285 40.0096 18.975C40.0096 18.525 39.8446 18.225 39.5146 18.075C39.1946 17.925 38.7396 17.79 38.1496 17.67C37.7496 17.59 37.3496 17.475 36.9496 17.325C36.5496 17.175 36.2146 16.965 35.9446 16.695C35.6746 16.415 35.5396 16.05 35.5396 15.6C35.5396 14.95 35.7796 14.42 36.2596 14.01C36.7496 13.59 37.4096 13.38 38.2396 13.38C39.0296 13.38 39.6746 13.58 40.1746 13.98C40.6846 14.37 40.9796 14.93 41.0596 15.66H39.8146C39.7646 15.28 39.5996 14.985 39.3196 14.775C39.0496 14.555 38.6846 14.445 38.2246 14.445C37.7746 14.445 37.4246 14.54 37.1746 14.73C36.9346 14.92 36.8146 15.17 36.8146 15.48C36.8146 15.78 36.9696 16.015 37.2796 16.185C37.5996 16.355 38.0296 16.5 38.5696 16.62C39.0296 16.72 39.4646 16.845 39.8746 16.995C40.2946 17.135 40.6346 17.35 40.8946 17.64C41.1646 17.92 41.2996 18.33 41.2996 18.87C41.3096 19.54 41.0546 20.095 40.5346 20.535C40.0246 20.965 39.3296 21.18 38.4496 21.18ZM49.8403 21.18C49.1203 21.18 48.4853 21.05 47.9353 20.79C47.3953 20.52 46.9703 20.15 46.6603 19.68C46.3603 19.2 46.2103 18.635 46.2103 17.985C46.2103 17.275 46.4153 16.645 46.8253 16.095C47.2453 15.535 47.8503 15.095 48.6403 14.775C48.3003 14.405 48.0553 14.055 47.9053 13.725C47.7553 13.385 47.6803 13.02 47.6803 12.63C47.6803 11.96 47.9153 11.41 48.3853 10.98C48.8653 10.54 49.5203 10.32 50.3503 10.32C50.8903 10.32 51.3603 10.425 51.7603 10.635C52.1603 10.835 52.4703 11.115 52.6903 11.475C52.9103 11.835 53.0103 12.245 52.9903 12.705H51.7453C51.7553 12.255 51.6153 11.915 51.3253 11.685C51.0453 11.455 50.7203 11.34 50.3503 11.34C49.9003 11.34 49.5503 11.46 49.3003 11.7C49.0503 11.94 48.9253 12.245 48.9253 12.615C48.9253 12.935 49.0103 13.245 49.1803 13.545C49.3603 13.845 49.6253 14.18 49.9753 14.55L53.2903 17.895C53.5803 17.475 53.8953 16.97 54.2353 16.38L54.7003 15.57H56.0353L55.3753 16.74C54.9353 17.53 54.5153 18.19 54.1153 18.72L56.3803 21H54.7903L53.3953 19.59C52.8653 20.16 52.3153 20.57 51.7453 20.82C51.1753 21.06 50.5403 21.18 49.8403 21.18ZM47.4703 17.94C47.4703 18.56 47.6903 19.075 48.1303 19.485C48.5703 19.895 49.1453 20.1 49.8553 20.1C50.3853 20.1 50.8653 20 51.2953 19.8C51.7353 19.59 52.1653 19.25 52.5853 18.78L49.4053 15.555C48.7453 15.815 48.2553 16.145 47.9353 16.545C47.6253 16.945 47.4703 17.41 47.4703 17.94ZM65.8872 21.18C64.8572 21.18 63.9672 20.955 63.2172 20.505C62.4772 20.045 61.9022 19.41 61.4922 18.6C61.0822 17.78 60.8772 16.83 60.8772 15.75C60.8772 14.68 61.0822 13.74 61.4922 12.93C61.9022 12.11 62.4772 11.47 63.2172 11.01C63.9672 10.55 64.8572 10.32 65.8872 10.32C67.0872 10.32 68.0622 10.61 68.8122 11.19C69.5722 11.76 70.0572 12.56 70.2672 13.59H68.8722C68.7122 12.94 68.3822 12.42 67.8822 12.03C67.3922 11.63 66.7272 11.43 65.8872 11.43C65.1372 11.43 64.4822 11.605 63.9222 11.955C63.3622 12.295 62.9272 12.79 62.6172 13.44C62.3172 14.08 62.1672 14.85 62.1672 15.75C62.1672 16.65 62.3172 17.425 62.6172 18.075C62.9272 18.715 63.3622 19.21 63.9222 19.56C64.4822 19.9 65.1372 20.07 65.8872 20.07C66.7272 20.07 67.3922 19.88 67.8822 19.5C68.3822 19.11 68.7122 18.595 68.8722 17.955H70.2672C70.0572 18.965 69.5722 19.755 68.8122 20.325C68.0622 20.895 67.0872 21.18 65.8872 21.18ZM75.1886 21.18C74.4886 21.18 73.8586 21.02 73.2986 20.7C72.7386 20.38 72.2936 19.93 71.9636 19.35C71.6436 18.76 71.4836 18.07 71.4836 17.28C71.4836 16.49 71.6486 15.805 71.9786 15.225C72.3086 14.635 72.7536 14.18 73.3136 13.86C73.8836 13.54 74.5186 13.38 75.2186 13.38C75.9186 13.38 76.5486 13.54 77.1086 13.86C77.6686 14.18 78.1086 14.635 78.4286 15.225C78.7586 15.805 78.9236 16.49 78.9236 17.28C78.9236 18.07 78.7586 18.76 78.4286 19.35C78.0986 19.93 77.6486 20.38 77.0786 20.7C76.5186 21.02 75.8886 21.18 75.1886 21.18ZM75.1886 20.1C75.6186 20.1 76.0186 19.995 76.3886 19.785C76.7586 19.575 77.0586 19.26 77.2886 18.84C77.5186 18.42 77.6336 17.9 77.6336 17.28C77.6336 16.66 77.5186 16.14 77.2886 15.72C77.0686 15.3 76.7736 14.985 76.4036 14.775C76.0336 14.565 75.6386 14.46 75.2186 14.46C74.7886 14.46 74.3886 14.565 74.0186 14.775C73.6486 14.985 73.3486 15.3 73.1186 15.72C72.8886 16.14 72.7736 16.66 72.7736 17.28C72.7736 17.9 72.8886 18.42 73.1186 18.84C73.3486 19.26 73.6436 19.575 74.0036 19.785C74.3736 19.995 74.7686 20.1 75.1886 20.1ZM80.471 21V13.56H81.611L81.686 14.895C81.926 14.425 82.271 14.055 82.721 13.785C83.171 13.515 83.681 13.38 84.251 13.38C85.131 13.38 85.831 13.65 86.351 14.19C86.881 14.72 87.146 15.54 87.146 16.65V21H85.886V16.785C85.886 15.235 85.246 14.46 83.966 14.46C83.326 14.46 82.791 14.695 82.361 15.165C81.941 15.625 81.731 16.285 81.731 17.145V21H80.471ZM92.2254 21.18C91.4854 21.18 90.8354 21.01 90.2754 20.67C89.7254 20.33 89.2954 19.865 88.9854 19.275C88.6854 18.685 88.5354 18.015 88.5354 17.265C88.5354 16.515 88.6904 15.85 89.0004 15.27C89.3104 14.68 89.7404 14.22 90.2904 13.89C90.8404 13.55 91.4904 13.38 92.2404 13.38C92.8504 13.38 93.3904 13.505 93.8604 13.755C94.3304 14.005 94.6954 14.355 94.9554 14.805V10.2H96.2154V21H95.0754L94.9554 19.77C94.7154 20.13 94.3704 20.455 93.9204 20.745C93.4704 21.035 92.9054 21.18 92.2254 21.18ZM92.3604 20.085C92.8604 20.085 93.3004 19.97 93.6804 19.74C94.0704 19.5 94.3704 19.17 94.5804 18.75C94.8004 18.33 94.9104 17.84 94.9104 17.28C94.9104 16.72 94.8004 16.23 94.5804 15.81C94.3704 15.39 94.0704 15.065 93.6804 14.835C93.3004 14.595 92.8604 14.475 92.3604 14.475C91.8704 14.475 91.4304 14.595 91.0404 14.835C90.6604 15.065 90.3604 15.39 90.1404 15.81C89.9304 16.23 89.8254 16.72 89.8254 17.28C89.8254 17.84 89.9304 18.33 90.1404 18.75C90.3604 19.17 90.6604 19.5 91.0404 19.74C91.4304 19.97 91.8704 20.085 92.3604 20.085ZM98.8298 11.91C98.5798 11.91 98.3698 11.83 98.1998 11.67C98.0398 11.5 97.9598 11.29 97.9598 11.04C97.9598 10.8 98.0398 10.6 98.1998 10.44C98.3698 10.28 98.5798 10.2 98.8298 10.2C99.0698 10.2 99.2748 10.28 99.4448 10.44C99.6148 10.6 99.6998 10.8 99.6998 11.04C99.6998 11.29 99.6148 11.5 99.4448 11.67C99.2748 11.83 99.0698 11.91 98.8298 11.91ZM98.1998 21V13.56H99.4598V21H98.1998ZM104.389 21C103.709 21 103.174 20.835 102.784 20.505C102.394 20.175 102.199 19.58 102.199 18.72V14.625H100.909V13.56H102.199L102.364 11.775H103.459V13.56H105.649V14.625H103.459V18.72C103.459 19.19 103.554 19.51 103.744 19.68C103.934 19.84 104.269 19.92 104.749 19.92H105.529V21H104.389ZM107.81 11.91C107.56 11.91 107.35 11.83 107.18 11.67C107.02 11.5 106.94 11.29 106.94 11.04C106.94 10.8 107.02 10.6 107.18 10.44C107.35 10.28 107.56 10.2 107.81 10.2C108.05 10.2 108.255 10.28 108.425 10.44C108.595 10.6 108.68 10.8 108.68 11.04C108.68 11.29 108.595 11.5 108.425 11.67C108.255 11.83 108.05 11.91 107.81 11.91ZM107.18 21V13.56H108.44V21H107.18ZM113.82 21.18C113.12 21.18 112.49 21.02 111.93 20.7C111.37 20.38 110.925 19.93 110.595 19.35C110.275 18.76 110.115 18.07 110.115 17.28C110.115 16.49 110.28 15.805 110.61 15.225C110.94 14.635 111.385 14.18 111.945 13.86C112.515 13.54 113.15 13.38 113.85 13.38C114.55 13.38 115.18 13.54 115.74 13.86C116.3 14.18 116.74 14.635 117.06 15.225C117.39 15.805 117.555 16.49 117.555 17.28C117.555 18.07 117.39 18.76 117.06 19.35C116.73 19.93 116.28 20.38 115.71 20.7C115.15 21.02 114.52 21.18 113.82 21.18ZM113.82 20.1C114.25 20.1 114.65 19.995 115.02 19.785C115.39 19.575 115.69 19.26 115.92 18.84C116.15 18.42 116.265 17.9 116.265 17.28C116.265 16.66 116.15 16.14 115.92 15.72C115.7 15.3 115.405 14.985 115.035 14.775C114.665 14.565 114.27 14.46 113.85 14.46C113.42 14.46 113.02 14.565 112.65 14.775C112.28 14.985 111.98 15.3 111.75 15.72C111.52 16.14 111.405 16.66 111.405 17.28C111.405 17.9 111.52 18.42 111.75 18.84C111.98 19.26 112.275 19.575 112.635 19.785C113.005 19.995 113.4 20.1 113.82 20.1ZM119.102 21V13.56H120.242L120.317 14.895C120.557 14.425 120.902 14.055 121.352 13.785C121.802 13.515 122.312 13.38 122.882 13.38C123.762 13.38 124.462 13.65 124.982 14.19C125.512 14.72 125.777 15.54 125.777 16.65V21H124.517V16.785C124.517 15.235 123.877 14.46 122.597 14.46C121.957 14.46 121.422 14.695 120.992 15.165C120.572 15.625 120.362 16.285 120.362 17.145V21H119.102ZM130.332 21.18C129.442 21.18 128.702 20.955 128.112 20.505C127.522 20.055 127.177 19.445 127.077 18.675H128.367C128.447 19.065 128.652 19.405 128.982 19.695C129.322 19.975 129.777 20.115 130.347 20.115C130.877 20.115 131.267 20.005 131.517 19.785C131.767 19.555 131.892 19.285 131.892 18.975C131.892 18.525 131.727 18.225 131.397 18.075C131.077 17.925 130.622 17.79 130.032 17.67C129.632 17.59 129.232 17.475 128.832 17.325C128.432 17.175 128.097 16.965 127.827 16.695C127.557 16.415 127.422 16.05 127.422 15.6C127.422 14.95 127.662 14.42 128.142 14.01C128.632 13.59 129.292 13.38 130.122 13.38C130.912 13.38 131.557 13.58 132.057 13.98C132.567 14.37 132.862 14.93 132.942 15.66H131.697C131.647 15.28 131.482 14.985 131.202 14.775C130.932 14.555 130.567 14.445 130.107 14.445C129.657 14.445 129.307 14.54 129.057 14.73C128.817 14.92 128.697 15.17 128.697 15.48C128.697 15.78 128.852 16.015 129.162 16.185C129.482 16.355 129.912 16.5 130.452 16.62C130.912 16.72 131.347 16.845 131.757 16.995C132.177 17.135 132.517 17.35 132.777 17.64C133.047 17.92 133.182 18.33 133.182 18.87C133.192 19.54 132.937 20.095 132.417 20.535C131.907 20.965 131.212 21.18 130.332 21.18Z" fill="white"/>
<path d="M225.417 21V10.5H228.867C229.687 10.5 230.362 10.635 230.892 10.905C231.422 11.175 231.812 11.54 232.062 12C232.322 12.46 232.452 12.98 232.452 13.56C232.452 14.13 232.327 14.645 232.077 15.105C231.827 15.565 231.437 15.935 230.907 16.215C230.377 16.485 229.697 16.62 228.867 16.62H226.677V21H225.417ZM226.677 15.555H228.837C229.677 15.555 230.272 15.38 230.622 15.03C230.982 14.67 231.162 14.18 231.162 13.56C231.162 12.93 230.982 12.44 230.622 12.09C230.272 11.73 229.677 11.55 228.837 11.55H226.677V15.555ZM233.824 21V13.56H234.964L235.069 14.985C235.299 14.495 235.649 14.105 236.119 13.815C236.589 13.525 237.169 13.38 237.859 13.38V14.7H237.514C237.074 14.7 236.669 14.78 236.299 14.94C235.929 15.09 235.634 15.35 235.414 15.72C235.194 16.09 235.084 16.6 235.084 17.25V21H233.824ZM239.834 11.91C239.584 11.91 239.374 11.83 239.204 11.67C239.044 11.5 238.964 11.29 238.964 11.04C238.964 10.8 239.044 10.6 239.204 10.44C239.374 10.28 239.584 10.2 239.834 10.2C240.074 10.2 240.279 10.28 240.449 10.44C240.619 10.6 240.704 10.8 240.704 11.04C240.704 11.29 240.619 11.5 240.449 11.67C240.279 11.83 240.074 11.91 239.834 11.91ZM239.204 21V13.56H240.464V21H239.204ZM244.598 21L241.778 13.56H243.098L245.333 19.785L247.583 13.56H248.873L246.053 21H244.598ZM252.165 21.18C251.545 21.18 251.03 21.075 250.62 20.865C250.21 20.655 249.905 20.375 249.705 20.025C249.505 19.675 249.405 19.295 249.405 18.885C249.405 18.125 249.695 17.54 250.275 17.13C250.855 16.72 251.645 16.515 252.645 16.515H254.655V16.425C254.655 15.775 254.485 15.285 254.145 14.955C253.805 14.615 253.35 14.445 252.78 14.445C252.29 14.445 251.865 14.57 251.505 14.82C251.155 15.06 250.935 15.415 250.845 15.885H249.555C249.605 15.345 249.785 14.89 250.095 14.52C250.415 14.15 250.81 13.87 251.28 13.68C251.75 13.48 252.25 13.38 252.78 13.38C253.82 13.38 254.6 13.66 255.12 14.22C255.65 14.77 255.915 15.505 255.915 16.425V21H254.79L254.715 19.665C254.505 20.085 254.195 20.445 253.785 20.745C253.385 21.035 252.845 21.18 252.165 21.18ZM252.36 20.115C252.84 20.115 253.25 19.99 253.59 19.74C253.94 19.49 254.205 19.165 254.385 18.765C254.565 18.365 254.655 17.945 254.655 17.505V17.49H252.75C252.01 17.49 251.485 17.62 251.175 17.88C250.875 18.13 250.725 18.445 250.725 18.825C250.725 19.215 250.865 19.53 251.145 19.77C251.435 20 251.84 20.115 252.36 20.115ZM261.021 21.18C260.311 21.18 259.671 21.02 259.101 20.7C258.541 20.37 258.096 19.915 257.766 19.335C257.446 18.745 257.286 18.06 257.286 17.28C257.286 16.5 257.446 15.82 257.766 15.24C258.096 14.65 258.541 14.195 259.101 13.875C259.671 13.545 260.311 13.38 261.021 13.38C261.901 13.38 262.641 13.61 263.241 14.07C263.851 14.53 264.236 15.145 264.396 15.915H263.106C263.006 15.455 262.761 15.1 262.371 14.85C261.981 14.59 261.526 14.46 261.006 14.46C260.586 14.46 260.191 14.565 259.821 14.775C259.451 14.985 259.151 15.3 258.921 15.72C258.691 16.14 258.576 16.66 258.576 17.28C258.576 17.9 258.691 18.42 258.921 18.84C259.151 19.26 259.451 19.58 259.821 19.8C260.191 20.01 260.586 20.115 261.006 20.115C261.526 20.115 261.981 19.99 262.371 19.74C262.761 19.48 263.006 19.115 263.106 18.645H264.396C264.246 19.395 263.866 20.005 263.256 20.475C262.646 20.945 261.901 21.18 261.021 21.18ZM266.761 24.3L268.606 20.28H268.171L265.216 13.56H266.581L269.041 19.35L271.651 13.56H272.956L268.081 24.3H266.761ZM277.921 21V10.5H281.371C282.191 10.5 282.866 10.635 283.396 10.905C283.926 11.175 284.316 11.54 284.566 12C284.826 12.46 284.956 12.98 284.956 13.56C284.956 14.13 284.831 14.645 284.581 15.105C284.331 15.565 283.941 15.935 283.411 16.215C282.881 16.485 282.201 16.62 281.371 16.62H279.181V21H277.921ZM279.181 15.555H281.341C282.181 15.555 282.776 15.38 283.126 15.03C283.486 14.67 283.666 14.18 283.666 13.56C283.666 12.93 283.486 12.44 283.126 12.09C282.776 11.73 282.181 11.55 281.341 11.55H279.181V15.555ZM289.279 21.18C288.579 21.18 287.949 21.02 287.389 20.7C286.829 20.38 286.384 19.93 286.054 19.35C285.734 18.76 285.574 18.07 285.574 17.28C285.574 16.49 285.739 15.805 286.069 15.225C286.399 14.635 286.844 14.18 287.404 13.86C287.974 13.54 288.609 13.38 289.309 13.38C290.009 13.38 290.639 13.54 291.199 13.86C291.759 14.18 292.199 14.635 292.519 15.225C292.849 15.805 293.014 16.49 293.014 17.28C293.014 18.07 292.849 18.76 292.519 19.35C292.189 19.93 291.739 20.38 291.169 20.7C290.609 21.02 289.979 21.18 289.279 21.18ZM289.279 20.1C289.709 20.1 290.109 19.995 290.479 19.785C290.849 19.575 291.149 19.26 291.379 18.84C291.609 18.42 291.724 17.9 291.724 17.28C291.724 16.66 291.609 16.14 291.379 15.72C291.159 15.3 290.864 14.985 290.494 14.775C290.124 14.565 289.729 14.46 289.309 14.46C288.879 14.46 288.479 14.565 288.109 14.775C287.739 14.985 287.439 15.3 287.209 15.72C286.979 16.14 286.864 16.66 286.864 17.28C286.864 17.9 286.979 18.42 287.209 18.84C287.439 19.26 287.734 19.575 288.094 19.785C288.464 19.995 288.859 20.1 289.279 20.1ZM294.561 21V10.2H295.821V21H294.561ZM298.447 11.91C298.197 11.91 297.987 11.83 297.817 11.67C297.657 11.5 297.577 11.29 297.577 11.04C297.577 10.8 297.657 10.6 297.817 10.44C297.987 10.28 298.197 10.2 298.447 10.2C298.687 10.2 298.892 10.28 299.062 10.44C299.232 10.6 299.317 10.8 299.317 11.04C299.317 11.29 299.232 11.5 299.062 11.67C298.892 11.83 298.687 11.91 298.447 11.91ZM297.817 21V13.56H299.077V21H297.817ZM304.486 21.18C303.776 21.18 303.136 21.02 302.566 20.7C302.006 20.37 301.561 19.915 301.231 19.335C300.911 18.745 300.751 18.06 300.751 17.28C300.751 16.5 300.911 15.82 301.231 15.24C301.561 14.65 302.006 14.195 302.566 13.875C303.136 13.545 303.776 13.38 304.486 13.38C305.366 13.38 306.106 13.61 306.706 14.07C307.316 14.53 307.701 15.145 307.861 15.915H306.571C306.471 15.455 306.226 15.1 305.836 14.85C305.446 14.59 304.991 14.46 304.471 14.46C304.051 14.46 303.656 14.565 303.286 14.775C302.916 14.985 302.616 15.3 302.386 15.72C302.156 16.14 302.041 16.66 302.041 17.28C302.041 17.9 302.156 18.42 302.386 18.84C302.616 19.26 302.916 19.58 303.286 19.8C303.656 20.01 304.051 20.115 304.471 20.115C304.991 20.115 305.446 19.99 305.836 19.74C306.226 19.48 306.471 19.115 306.571 18.645H307.861C307.711 19.395 307.331 20.005 306.721 20.475C306.111 20.945 305.366 21.18 304.486 21.18ZM310.226 24.3L312.071 20.28H311.636L308.681 13.56H310.046L312.506 19.35L315.116 13.56H316.421L311.546 24.3H310.226Z" fill="white"/>
<path d="M1217.43 5.85708H1219.77V1.55433C1219.37 1.49569 1217.98 1.36377 1216.36 1.36377C1212.99 1.36377 1210.68 3.60422 1210.68 7.72205V11.5118H1206.96V16.3219H1210.68V28.4251H1215.24V16.323H1218.81L1219.38 11.5129H1215.24V8.19901C1215.24 6.80873 1215.6 5.85708 1217.43 5.85708Z" fill="white"/>
<path d="M1299.87 5.61268C1298.82 6.10205 1297.69 6.42643 1296.52 6.58393C1297.73 5.82268 1298.65 4.62643 1299.08 3.18455C1297.96 3.8933 1296.71 4.39393 1295.39 4.6733C1294.32 3.47143 1292.8 2.72705 1291.13 2.72705C1287.91 2.72705 1285.32 5.4908 1285.32 8.87893C1285.32 9.36643 1285.35 9.83518 1285.45 10.2814C1280.61 10.0321 1276.32 7.58143 1273.45 3.8483C1272.94 4.76893 1272.65 5.82268 1272.65 6.95705C1272.65 9.08705 1273.69 10.9752 1275.24 12.0683C1274.3 12.0496 1273.38 11.7627 1272.6 11.3108C1272.6 11.3296 1272.6 11.3539 1272.6 11.3783C1272.6 14.3671 1274.62 16.8496 1277.27 17.4214C1276.8 17.5583 1276.28 17.6239 1275.74 17.6239C1275.37 17.6239 1274.99 17.6014 1274.64 17.5189C1275.4 19.9545 1277.54 21.7452 1280.08 21.8033C1278.1 23.4402 1275.59 24.4264 1272.86 24.4264C1272.38 24.4264 1271.93 24.4039 1271.47 24.342C1274.05 26.0989 1277.11 27.102 1280.4 27.102C1291.12 27.102 1296.98 17.727 1296.98 9.6008C1296.98 9.32893 1296.97 9.06642 1296.96 8.8058C1298.11 7.93955 1299.08 6.85768 1299.87 5.61268Z" fill="white"/>
<path fill-rule="evenodd" clip-rule="evenodd" d="M1360.4 0H1371.05C1375.95 0 1379.93 4.19812 1379.93 9.375V20.625C1379.93 25.8019 1375.95 30 1371.05 30H1360.4C1355.5 30 1351.52 25.8019 1351.52 20.625V9.375C1351.52 4.19812 1355.5 0 1360.4 0ZM1371.05 27.1875C1374.48 27.1875 1377.27 24.2437 1377.27 20.625V9.375C1377.27 5.75625 1374.48 2.8125 1371.05 2.8125H1360.4C1356.97 2.8125 1354.19 5.75625 1354.19 9.375V20.625C1354.19 24.2437 1356.97 27.1875 1360.4 27.1875H1371.05Z" fill="white"/>
<path fill-rule="evenodd" clip-rule="evenodd" d="M1358.62 15C1358.62 10.8581 1361.8 7.5 1365.73 7.5C1369.65 7.5 1372.83 10.8581 1372.83 15C1372.83 19.1419 1369.65 22.5 1365.73 22.5C1361.8 22.5 1358.62 19.1419 1358.62 15ZM1361.29 15C1361.29 17.5837 1363.28 19.6875 1365.73 19.6875C1368.17 19.6875 1370.16 17.5837 1370.16 15C1370.16 12.4144 1368.17 10.3125 1365.73 10.3125C1363.28 10.3125 1361.29 12.4144 1361.29 15Z" fill="white"/>
<ellipse cx="1373.36" cy="6.93736" rx="0.94635" ry="0.999375" fill="white"/>
</g>
<defs>
<clipPath id="clip0">
<rect width="1379" height="30" fill="white" transform="translate(0.929688)"/>
</clipPath>
</defs>
</svg>
