<svg width="400" height="25" viewBox="0 0 400 25" fill="none" xmlns="http://www.w3.org/2000/svg">
<path d="M105.518 19H98.1172V6.15039H105.518V8.38281H100.842V11.2041H105.192V13.4365H100.842V16.75H105.518V19ZM122.073 19L121.142 15.9414H116.457L115.525 19H112.59L117.125 6.09766H120.456L125.009 19H122.073ZM120.491 13.6562C119.63 10.8848 119.144 9.31738 119.032 8.9541C118.927 8.59082 118.851 8.30371 118.804 8.09277C118.61 8.84277 118.057 10.6973 117.143 13.6562H120.491ZM140.22 15.4316C140.22 16.5918 139.801 17.5059 138.963 18.1738C138.131 18.8418 136.971 19.1758 135.482 19.1758C134.111 19.1758 132.898 18.918 131.844 18.4023V15.8711C132.711 16.2578 133.443 16.5303 134.041 16.6885C134.645 16.8467 135.195 16.9258 135.693 16.9258C136.291 16.9258 136.748 16.8115 137.064 16.583C137.387 16.3545 137.548 16.0146 137.548 15.5635C137.548 15.3115 137.478 15.0889 137.337 14.8955C137.196 14.6963 136.988 14.5059 136.713 14.3242C136.443 14.1426 135.89 13.8525 135.052 13.4541C134.267 13.085 133.678 12.7305 133.285 12.3906C132.893 12.0508 132.579 11.6553 132.345 11.2041C132.11 10.7529 131.993 10.2256 131.993 9.62207C131.993 8.48535 132.377 7.5918 133.145 6.94141C133.918 6.29102 134.984 5.96582 136.344 5.96582C137.012 5.96582 137.647 6.04492 138.251 6.20312C138.86 6.36133 139.496 6.58398 140.158 6.87109L139.279 8.98926C138.594 8.70801 138.025 8.51172 137.574 8.40039C137.129 8.28906 136.689 8.2334 136.256 8.2334C135.74 8.2334 135.345 8.35352 135.069 8.59375C134.794 8.83398 134.656 9.14746 134.656 9.53418C134.656 9.77441 134.712 9.98535 134.823 10.167C134.935 10.3428 135.11 10.5156 135.351 10.6855C135.597 10.8496 136.174 11.1484 137.082 11.582C138.283 12.1562 139.106 12.7334 139.552 13.3135C139.997 13.8877 140.22 14.5938 140.22 15.4316ZM153.506 19H150.781V8.41797H147.292V6.15039H156.995V8.41797H153.506V19ZM187.048 19H183.585L177.995 9.2793H177.916C178.027 10.9961 178.083 12.2207 178.083 12.9531V19H175.648V6.15039H179.085L184.666 15.7744H184.728C184.64 14.1045 184.596 12.9238 184.596 12.2324V6.15039H187.048V19ZM206.75 6.15039V14.4648C206.75 15.4141 206.536 16.2461 206.108 16.9609C205.687 17.6758 205.074 18.2236 204.271 18.6045C203.469 18.9854 202.52 19.1758 201.424 19.1758C199.771 19.1758 198.488 18.7539 197.574 17.9102C196.66 17.0605 196.203 15.9004 196.203 14.4297V6.15039H198.919V14.0166C198.919 15.0068 199.118 15.7334 199.517 16.1963C199.915 16.6592 200.574 16.8906 201.494 16.8906C202.385 16.8906 203.029 16.6592 203.428 16.1963C203.832 15.7275 204.034 14.9951 204.034 13.999V6.15039H206.75ZM223.481 15.4316C223.481 16.5918 223.062 17.5059 222.225 18.1738C221.393 18.8418 220.232 19.1758 218.744 19.1758C217.373 19.1758 216.16 18.918 215.105 18.4023V15.8711C215.973 16.2578 216.705 16.5303 217.303 16.6885C217.906 16.8467 218.457 16.9258 218.955 16.9258C219.553 16.9258 220.01 16.8115 220.326 16.583C220.648 16.3545 220.81 16.0146 220.81 15.5635C220.81 15.3115 220.739 15.0889 220.599 14.8955C220.458 14.6963 220.25 14.5059 219.975 14.3242C219.705 14.1426 219.151 13.8525 218.313 13.4541C217.528 13.085 216.939 12.7305 216.547 12.3906C216.154 12.0508 215.841 11.6553 215.606 11.2041C215.372 10.7529 215.255 10.2256 215.255 9.62207C215.255 8.48535 215.639 7.5918 216.406 6.94141C217.18 6.29102 218.246 5.96582 219.605 5.96582C220.273 5.96582 220.909 6.04492 221.513 6.20312C222.122 6.36133 222.758 6.58398 223.42 6.87109L222.541 8.98926C221.855 8.70801 221.287 8.51172 220.836 8.40039C220.391 8.28906 219.951 8.2334 219.518 8.2334C219.002 8.2334 218.606 8.35352 218.331 8.59375C218.056 8.83398 217.918 9.14746 217.918 9.53418C217.918 9.77441 217.974 9.98535 218.085 10.167C218.196 10.3428 218.372 10.5156 218.612 10.6855C218.858 10.8496 219.436 11.1484 220.344 11.582C221.545 12.1562 222.368 12.7334 222.813 13.3135C223.259 13.8877 223.481 14.5938 223.481 15.4316ZM239.677 19L238.745 15.9414H234.061L233.129 19H230.193L234.729 6.09766H238.06L242.612 19H239.677ZM238.095 13.6562C237.233 10.8848 236.747 9.31738 236.636 8.9541C236.53 8.59082 236.454 8.30371 236.407 8.09277C236.214 8.84277 235.66 10.6973 234.746 13.6562H238.095ZM265.871 19H263.146V8.41797H259.657V6.15039H269.36V8.41797H265.871V19ZM284.738 19H277.338V6.15039H284.738V8.38281H280.062V11.2041H284.413V13.4365H280.062V16.75H284.738V19ZM304.827 19H301.364L295.774 9.2793H295.695C295.807 10.9961 295.862 12.2207 295.862 12.9531V19H293.428V6.15039H296.864L302.445 15.7744H302.507C302.419 14.1045 302.375 12.9238 302.375 12.2324V6.15039H304.827V19ZM318.948 11.7842H324.046V18.4463C323.22 18.7158 322.44 18.9033 321.708 19.0088C320.981 19.1201 320.237 19.1758 319.476 19.1758C317.536 19.1758 316.054 18.6074 315.028 17.4707C314.009 16.3281 313.499 14.6904 313.499 12.5576C313.499 10.4834 314.091 8.86621 315.274 7.70605C316.464 6.5459 318.11 5.96582 320.214 5.96582C321.532 5.96582 322.804 6.22949 324.028 6.75684L323.123 8.93652C322.186 8.46777 321.21 8.2334 320.196 8.2334C319.019 8.2334 318.075 8.62891 317.366 9.41992C316.657 10.2109 316.303 11.2744 316.303 12.6104C316.303 14.0049 316.587 15.0713 317.155 15.8096C317.729 16.542 318.562 16.9082 319.651 16.9082C320.22 16.9082 320.797 16.8496 321.383 16.7324V14.0518H318.948V11.7842ZM337.991 11.7842H343.089V18.4463C342.263 18.7158 341.483 18.9033 340.751 19.0088C340.024 19.1201 339.28 19.1758 338.519 19.1758C336.579 19.1758 335.097 18.6074 334.071 17.4707C333.052 16.3281 332.542 14.6904 332.542 12.5576C332.542 10.4834 333.134 8.86621 334.317 7.70605C335.507 6.5459 337.153 5.96582 339.257 5.96582C340.575 5.96582 341.847 6.22949 343.071 6.75684L342.166 8.93652C341.229 8.46777 340.253 8.2334 339.239 8.2334C338.062 8.2334 337.118 8.62891 336.409 9.41992C335.7 10.2109 335.346 11.2744 335.346 12.6104C335.346 14.0049 335.63 15.0713 336.198 15.8096C336.772 16.542 337.604 16.9082 338.694 16.9082C339.263 16.9082 339.84 16.8496 340.426 16.7324V14.0518H337.991V11.7842ZM360.022 19L359.091 15.9414H354.406L353.475 19H350.539L355.074 6.09766H358.405L362.958 19H360.022ZM358.44 13.6562C357.579 10.8848 357.093 9.31738 356.981 8.9541C356.876 8.59082 356.8 8.30371 356.753 8.09277C356.56 8.84277 356.006 10.6973 355.092 13.6562H358.44ZM373.309 11.8545H374.188C375.049 11.8545 375.685 11.7109 376.095 11.4238C376.505 11.1367 376.71 10.6855 376.71 10.0703C376.71 9.46094 376.499 9.02734 376.077 8.76953C375.661 8.51172 375.014 8.38281 374.135 8.38281H373.309V11.8545ZM373.309 14.0693V19H370.584V6.15039H374.328C376.074 6.15039 377.366 6.46973 378.204 7.1084C379.042 7.74121 379.461 8.70508 379.461 10C379.461 10.7559 379.253 11.4297 378.837 12.0215C378.421 12.6074 377.832 13.0674 377.07 13.4014C379.004 16.29 380.264 18.1562 380.85 19H377.826L374.759 14.0693H373.309ZM396.333 19L395.401 15.9414H390.717L389.785 19H386.85L391.385 6.09766H394.716L399.269 19H396.333ZM394.751 13.6562C393.89 10.8848 393.403 9.31738 393.292 8.9541C393.187 8.59082 393.11 8.30371 393.063 8.09277C392.87 8.84277 392.316 10.6973 391.402 13.6562H394.751Z" fill="#FBD784"/>
<rect x="0.5" y="10" width="72" height="2" fill="#FBD784"/>
</svg>
