<svg width="401" height="26" viewBox="0 0 401 26" fill="none" xmlns="http://www.w3.org/2000/svg">
<path d="M98.1296 19.1411V6.2915H100.854V19.1411H98.1296ZM121.488 19.1411H118.025L112.435 9.42041H112.356C112.468 11.1372 112.523 12.3618 112.523 13.0942V19.1411H110.089V6.2915H113.525L119.106 15.9155H119.168C119.08 14.2456 119.036 13.0649 119.036 12.3735V6.2915H121.488V19.1411ZM141.392 12.5933C141.392 14.7085 140.789 16.3286 139.582 17.4536C138.381 18.5786 136.643 19.1411 134.37 19.1411H130.731V6.2915H134.765C136.863 6.2915 138.492 6.84521 139.652 7.95264C140.812 9.06006 141.392 10.6069 141.392 12.5933ZM138.562 12.6636C138.562 9.90381 137.344 8.52393 134.906 8.52393H133.456V16.8911H134.625C137.25 16.8911 138.562 15.4819 138.562 12.6636ZM161.719 12.6987C161.719 14.8257 161.191 16.4604 160.136 17.603C159.082 18.7456 157.57 19.3169 155.601 19.3169C153.633 19.3169 152.121 18.7456 151.066 17.603C150.011 16.4604 149.484 14.8198 149.484 12.6812C149.484 10.5425 150.011 8.91064 151.066 7.78564C152.127 6.65479 153.644 6.08936 155.619 6.08936C157.594 6.08936 159.102 6.65771 160.145 7.79443C161.194 8.93115 161.719 10.5659 161.719 12.6987ZM152.341 12.6987C152.341 14.1343 152.613 15.2153 153.158 15.9419C153.703 16.6685 154.517 17.0317 155.601 17.0317C157.775 17.0317 158.862 15.5874 158.862 12.6987C158.862 9.8042 157.781 8.35693 155.619 8.35693C154.535 8.35693 153.718 8.72314 153.167 9.45557C152.616 10.1821 152.341 11.2632 152.341 12.6987ZM181.781 19.1411H178.318L172.728 9.42041H172.649C172.76 11.1372 172.816 12.3618 172.816 13.0942V19.1411H170.382V6.2915H173.818L179.399 15.9155H179.461C179.373 14.2456 179.329 13.0649 179.329 12.3735V6.2915H181.781V19.1411ZM198.425 19.1411H191.024V6.2915H198.425V8.52393H193.749V11.3452H198.099V13.5776H193.749V16.8911H198.425V19.1411ZM214.699 15.5728C214.699 16.7329 214.28 17.647 213.442 18.3149C212.61 18.9829 211.45 19.3169 209.962 19.3169C208.591 19.3169 207.378 19.0591 206.323 18.5435V16.0122C207.19 16.3989 207.923 16.6714 208.52 16.8296C209.124 16.9878 209.675 17.0669 210.173 17.0669C210.77 17.0669 211.227 16.9526 211.544 16.7241C211.866 16.4956 212.027 16.1558 212.027 15.7046C212.027 15.4526 211.957 15.23 211.816 15.0366C211.676 14.8374 211.468 14.647 211.192 14.4653C210.923 14.2837 210.369 13.9937 209.531 13.5952C208.746 13.2261 208.157 12.8716 207.764 12.5317C207.372 12.1919 207.058 11.7964 206.824 11.3452C206.59 10.894 206.472 10.3667 206.472 9.76318C206.472 8.62646 206.856 7.73291 207.624 7.08252C208.397 6.43213 209.464 6.10693 210.823 6.10693C211.491 6.10693 212.127 6.18604 212.73 6.34424C213.34 6.50244 213.975 6.7251 214.637 7.01221L213.759 9.13037C213.073 8.84912 212.505 8.65283 212.053 8.5415C211.608 8.43018 211.169 8.37451 210.735 8.37451C210.219 8.37451 209.824 8.49463 209.549 8.73486C209.273 8.9751 209.135 9.28857 209.135 9.67529C209.135 9.91553 209.191 10.1265 209.302 10.3081C209.414 10.4839 209.59 10.6567 209.83 10.8267C210.076 10.9907 210.653 11.2896 211.561 11.7231C212.762 12.2974 213.586 12.8745 214.031 13.4546C214.476 14.0288 214.699 14.7349 214.699 15.5728ZM223.028 19.1411V6.2915H225.753V19.1411H223.028ZM242.853 19.1411L241.922 16.0825H237.237L236.305 19.1411H233.37L237.905 6.23877H241.236L245.789 19.1411H242.853ZM241.271 13.7974C240.41 11.0259 239.924 9.4585 239.812 9.09521C239.707 8.73193 239.631 8.44482 239.584 8.23389C239.39 8.98389 238.837 10.8384 237.923 13.7974H241.271ZM264.814 19.1411H261.351L255.761 9.42041H255.682C255.794 11.1372 255.849 12.3618 255.849 13.0942V19.1411H253.415V6.2915H256.851L262.432 15.9155H262.494C262.406 14.2456 262.362 13.0649 262.362 12.3735V6.2915H264.814V19.1411ZM290.191 8.37451C289.166 8.37451 288.372 8.76123 287.809 9.53467C287.247 10.3022 286.966 11.3745 286.966 12.7515C286.966 15.6167 288.041 17.0493 290.191 17.0493C291.094 17.0493 292.186 16.8237 293.469 16.3726V18.6577C292.415 19.0972 291.237 19.3169 289.936 19.3169C288.067 19.3169 286.637 18.7515 285.647 17.6206C284.657 16.4839 284.162 14.855 284.162 12.7339C284.162 11.3979 284.405 10.229 284.891 9.22705C285.378 8.21924 286.075 7.44873 286.983 6.91553C287.897 6.37646 288.967 6.10693 290.191 6.10693C291.439 6.10693 292.693 6.40869 293.953 7.01221L293.074 9.22705C292.594 8.99854 292.11 8.79932 291.624 8.62939C291.137 8.45947 290.66 8.37451 290.191 8.37451ZM312.671 6.2915V14.606C312.671 15.5552 312.457 16.3872 312.029 17.1021C311.607 17.8169 310.995 18.3647 310.192 18.7456C309.389 19.1265 308.44 19.3169 307.344 19.3169C305.692 19.3169 304.409 18.895 303.495 18.0513C302.581 17.2017 302.124 16.0415 302.124 14.5708V6.2915H304.84V14.1577C304.84 15.1479 305.039 15.8745 305.437 16.3374C305.836 16.8003 306.495 17.0317 307.415 17.0317C308.305 17.0317 308.95 16.8003 309.348 16.3374C309.753 15.8687 309.955 15.1362 309.955 14.1401V6.2915H312.671ZM321.817 19.1411V6.2915H324.542V16.8911H329.754V19.1411H321.817ZM342.952 19.1411H340.227V8.55908H336.738V6.2915H346.441V8.55908H342.952V19.1411ZM364.878 6.2915V14.606C364.878 15.5552 364.664 16.3872 364.236 17.1021C363.814 17.8169 363.202 18.3647 362.399 18.7456C361.596 19.1265 360.647 19.3169 359.552 19.3169C357.899 19.3169 356.616 18.895 355.702 18.0513C354.788 17.2017 354.331 16.0415 354.331 14.5708V6.2915H357.047V14.1577C357.047 15.1479 357.246 15.8745 357.644 16.3374C358.043 16.8003 358.702 17.0317 359.622 17.0317C360.512 17.0317 361.157 16.8003 361.555 16.3374C361.96 15.8687 362.162 15.1362 362.162 14.1401V6.2915H364.878ZM376.749 11.9956H377.628C378.489 11.9956 379.125 11.8521 379.535 11.5649C379.945 11.2778 380.15 10.8267 380.15 10.2114C380.15 9.60205 379.939 9.16846 379.517 8.91064C379.101 8.65283 378.454 8.52393 377.575 8.52393H376.749V11.9956ZM376.749 14.2104V19.1411H374.024V6.2915H377.768C379.514 6.2915 380.806 6.61084 381.644 7.24951C382.482 7.88232 382.901 8.84619 382.901 10.1411C382.901 10.897 382.693 11.5708 382.277 12.1626C381.861 12.7485 381.272 13.2085 380.51 13.5425C382.444 16.4312 383.704 18.2974 384.29 19.1411H381.266L378.199 14.2104H376.749ZM399.307 19.1411H391.907V6.2915H399.307V8.52393H394.632V11.3452H398.982V13.5776H394.632V16.8911H399.307V19.1411Z" fill="#FBD784"/>
<rect x="0.512451" y="11.1411" width="72" height="2" fill="#FBD784"/>
</svg>
